<?xml version="1.0" encoding="utf-8"?>
<!-- Generator: Adobe Illustrator 22.0.0, SVG Export Plug-In . SVG Version: 6.00 Build 0)  -->
<svg version="1.1" id="Layer_2_1_" xmlns="http://www.w3.org/2000/svg" xmlns:xlink="http://www.w3.org/1999/xlink" x="0px" y="0px"
	 viewBox="0 0 125.7 37.9" style="enable-background:new 0 0 125.7 37.9;" xml:space="preserve">
<style type="text/css">
	.st0{fill:#00C9DB;}
	.st1{fill:#FFFFFF;}
	.st2{fill:#FCFCFC;}
	.st3{font-family:'Broadway';}
	.st4{font-size:27px;}
	.st5{font-size:17px;}
</style>
<title>logo</title>
<path class="st0" d="M20.2,30.8L20.2,30.8c-1.2,0.4-3.7-0.6-6.4-2.6c-6.9-6.4-7.1-8.5-9.1-13.6c-0.9-3.3-0.9-6-0.1-6.9l0,0
	c0.5-0.6,1.9-1,3.9-1.1c0.9-1.1,1.8-2.1,2.8-3.1C6.8,3.1,3.1,3.6,1.7,5.2c-2.1,2.4-1,9.5,2.2,16.3c4.3,8.7,14.2,14.2,17.5,12.9
	c2.2-0.9,4.3-5,5.6-10.2c-1.3,0.9-2.7,1.8-4,2.5C22.1,28.9,21.1,30.4,20.2,30.8z"/>
<path class="st0" d="M5.1,8.4C3.8,10,5,14.9,7.6,19.7c3.4,5.9,10.2,10.1,12.7,9.9c1.4-1.1,2.6-3.8,3.4-7.1c-1,0.7-2,1.3-3,1.9
	c-0.6,1.6-1.4,2.7-2,3l0,0c-0.9,0.3-2.7-0.4-4.7-1.9c-5.1-4.7-5.3-6.2-6.7-10C6.7,13,6.6,11,7.2,10.3l0,0c0.4-0.5,1.4-0.7,2.8-0.8
	c0.6-0.7,1.2-1.4,1.7-2l0.3-0.3C8.9,6.9,6.1,7.3,5.1,8.4z"/>
<path class="st0" d="M14.3,8.3C14.9,7.9,15.4,7.5,16,7c-1.6-0.1-3.2-0.2-4.7-0.4c-2,1.2-3.7,1.8-4.6,1.6l0,0C6.4,8,6.2,7.9,6,7.8
	C7,8.8,8.8,10.7,14.3,8.3z"/>
<path class="st0" d="M12.2,14.2v16.9c0,0,9.8,3.8,11.7-3.7c1.9-7.5,2.3-13.7-1-14.1C19.5,12.8,13,11.9,12.2,14.2z"/>
<path class="st1" d="M16,16.8c0,0-1.9,7.6,0,7.6c1.9,0,5.6-4.1,3.5-5.9C17.4,16.7,16,16.8,16,16.8z"/>
<text transform="matrix(1 0 0 1 30 26.375)"><tspan x="0" y="0" class="st2 st3 st4">D</tspan><tspan x="20.3" y="0" class="st2 st3 st5">okaan-e</tspan></text>
</svg>
